<?xml version="1.0" encoding="UTF-8" standalone="no"?>
<!DOCTYPE svg PUBLIC "-//W3C//DTD SVG 1.1//EN"
 "http://www.w3.org/Graphics/SVG/1.1/DTD/svg11.dtd">
<!-- Generated by graphviz version 2.40.1 (20161225.0304)
 -->
<!-- Title: livestream_tags Pages: 1 -->
<svg width="367pt" height="225pt"
 viewBox="0.00 0.00 367.00 225.00" xmlns="http://www.w3.org/2000/svg" xmlns:xlink="http://www.w3.org/1999/xlink">
<g id="graph0" class="graph" transform="scale(1 1) rotate(0) translate(4 221)">
<title>livestream_tags</title>
<polygon fill="#ffffff" stroke="transparent" points="-4,4 -4,-221 363,-221 363,4 -4,4"/>
<!-- livestream_tags -->
<g id="node1" class="node">
<title>livestream_tags</title>
<polygon fill="#efefef" stroke="transparent" points="46.5,-135.5 46.5,-170.5 313.5,-170.5 313.5,-135.5 46.5,-135.5"/>
<polygon fill="none" stroke="#000000" points="46.5,-135.5 46.5,-170.5 313.5,-170.5 313.5,-135.5 46.5,-135.5"/>
<text text-anchor="start" x="53.2088" y="-148.3" font-family="Arial Bold" font-size="18.00" fill="#000000">livestream_tags</text>
<text text-anchor="start" x="179.2232" y="-148.3" font-family="Arial" font-size="14.00" fill="#000000">    </text>
<text text-anchor="start" x="213.428" y="-148.3" font-family="Arial" font-size="14.00" fill="#666666">[BASE TABLE]</text>
<polygon fill="none" stroke="#000000" points="46.5,-105.5 46.5,-135.5 313.5,-135.5 313.5,-105.5 46.5,-105.5"/>
<text text-anchor="start" x="53.5" y="-116.9" font-family="Arial" font-size="14.00" fill="#000000">id </text>
<text text-anchor="start" x="68.2798" y="-116.9" font-family="Arial" font-size="14.00" fill="#666666">[bigint]</text>
<polygon fill="none" stroke="#000000" points="46.5,-75.5 46.5,-105.5 313.5,-105.5 313.5,-75.5 46.5,-75.5"/>
<text text-anchor="start" x="53.5" y="-86.9" font-family="Arial" font-size="14.00" fill="#000000">livestream_id </text>
<text text-anchor="start" x="139.8352" y="-86.9" font-family="Arial" font-size="14.00" fill="#666666">[bigint]</text>
<polygon fill="none" stroke="#000000" points="46.5,-45.5 46.5,-75.5 313.5,-75.5 313.5,-45.5 46.5,-45.5"/>
<text text-anchor="start" x="53.5" y="-56.9" font-family="Arial" font-size="14.00" fill="#000000">tag_id </text>
<text text-anchor="start" x="95.5182" y="-56.9" font-family="Arial" font-size="14.00" fill="#666666">[bigint]</text>
<polygon fill="none" stroke="#000000" stroke-width="3" points="44.5,-44.5 44.5,-172.5 314.5,-172.5 314.5,-44.5 44.5,-44.5"/>
</g>
</g>
</svg>
