<?xml version="1.0" encoding="UTF-8" standalone="no"?>
<!DOCTYPE svg PUBLIC "-//W3C//DTD SVG 1.1//EN"
 "http://www.w3.org/Graphics/SVG/1.1/DTD/svg11.dtd">
<!-- Generated by graphviz version 2.40.1 (20161225.0304)
 -->
<!-- Title: isucon Pages: 1 -->
<svg width="4474pt" height="369pt"
 viewBox="0.00 0.00 4474.00 369.00" xmlns="http://www.w3.org/2000/svg" xmlns:xlink="http://www.w3.org/1999/xlink">
<g id="graph0" class="graph" transform="scale(1 1) rotate(0) translate(4 365)">
<title>isucon</title>
<polygon fill="#ffffff" stroke="transparent" points="-4,4 -4,-365 4470,-365 4470,4 -4,4"/>
<!-- icons -->
<g id="node1" class="node">
<title>icons</title>
<polygon fill="#efefef" stroke="transparent" points="43.5,-207.5 43.5,-242.5 226.5,-242.5 226.5,-207.5 43.5,-207.5"/>
<polygon fill="none" stroke="#000000" points="43.5,-207.5 43.5,-242.5 226.5,-242.5 226.5,-207.5 43.5,-207.5"/>
<text text-anchor="start" x="50.2127" y="-220.3" font-family="Arial Bold" font-size="18.00" fill="#000000">icons</text>
<text text-anchor="start" x="92.2193" y="-220.3" font-family="Arial" font-size="14.00" fill="#000000">    </text>
<text text-anchor="start" x="126.4241" y="-220.3" font-family="Arial" font-size="14.00" fill="#666666">[BASE TABLE]</text>
<polygon fill="none" stroke="#000000" points="43.5,-177.5 43.5,-207.5 226.5,-207.5 226.5,-177.5 43.5,-177.5"/>
<text text-anchor="start" x="50.5" y="-188.9" font-family="Arial" font-size="14.00" fill="#000000">id    </text>
<text text-anchor="start" x="95.594" y="-188.9" font-family="Arial" font-size="14.00" fill="#666666">[bigint]</text>
<polygon fill="none" stroke="#000000" points="43.5,-147.5 43.5,-177.5 226.5,-177.5 226.5,-147.5 43.5,-147.5"/>
<text text-anchor="start" x="50.5" y="-158.9" font-family="Arial" font-size="14.00" fill="#000000">user_id    </text>
<text text-anchor="start" x="130.6024" y="-158.9" font-family="Arial" font-size="14.00" fill="#666666">[bigint]</text>
<polygon fill="none" stroke="#000000" points="43.5,-117.5 43.5,-147.5 226.5,-147.5 226.5,-117.5 43.5,-117.5"/>
<text text-anchor="start" x="50.5" y="-128.9" font-family="Arial" font-size="14.00" fill="#000000">image    </text>
<text text-anchor="start" x="122.8198" y="-128.9" font-family="Arial" font-size="14.00" fill="#666666">[longblob]</text>
</g>
<!-- livecomment_reports -->
<g id="node2" class="node">
<title>livecomment_reports</title>
<polygon fill="#efefef" stroke="transparent" points="330.5,-237.5 330.5,-272.5 638.5,-272.5 638.5,-237.5 330.5,-237.5"/>
<polygon fill="none" stroke="#000000" points="330.5,-237.5 330.5,-272.5 638.5,-272.5 638.5,-237.5 330.5,-237.5"/>
<text text-anchor="start" x="337.2104" y="-250.3" font-family="Arial Bold" font-size="18.00" fill="#000000">livecomment_reports</text>
<text text-anchor="start" x="504.2216" y="-250.3" font-family="Arial" font-size="14.00" fill="#000000">    </text>
<text text-anchor="start" x="538.4264" y="-250.3" font-family="Arial" font-size="14.00" fill="#666666">[BASE TABLE]</text>
<polygon fill="none" stroke="#000000" points="330.5,-207.5 330.5,-237.5 638.5,-237.5 638.5,-207.5 330.5,-207.5"/>
<text text-anchor="start" x="337.5" y="-218.9" font-family="Arial" font-size="14.00" fill="#000000">id    </text>
<text text-anchor="start" x="382.594" y="-218.9" font-family="Arial" font-size="14.00" fill="#666666">[bigint]</text>
<polygon fill="none" stroke="#000000" points="330.5,-177.5 330.5,-207.5 638.5,-207.5 638.5,-177.5 330.5,-177.5"/>
<text text-anchor="start" x="337.5" y="-188.9" font-family="Arial" font-size="14.00" fill="#000000">user_id    </text>
<text text-anchor="start" x="417.6024" y="-188.9" font-family="Arial" font-size="14.00" fill="#666666">[bigint]</text>
<polygon fill="none" stroke="#000000" points="330.5,-147.5 330.5,-177.5 638.5,-177.5 638.5,-147.5 330.5,-147.5"/>
<text text-anchor="start" x="337.5" y="-158.9" font-family="Arial" font-size="14.00" fill="#000000">livestream_id    </text>
<text text-anchor="start" x="454.1494" y="-158.9" font-family="Arial" font-size="14.00" fill="#666666">[bigint]</text>
<polygon fill="none" stroke="#000000" points="330.5,-117.5 330.5,-147.5 638.5,-147.5 638.5,-117.5 330.5,-117.5"/>
<text text-anchor="start" x="337.5" y="-128.9" font-family="Arial" font-size="14.00" fill="#000000">livecomment_id    </text>
<text text-anchor="start" x="468.932" y="-128.9" font-family="Arial" font-size="14.00" fill="#666666">[bigint]</text>
<polygon fill="none" stroke="#000000" points="330.5,-87.5 330.5,-117.5 638.5,-117.5 638.5,-87.5 330.5,-87.5"/>
<text text-anchor="start" x="337.5" y="-98.9" font-family="Arial" font-size="14.00" fill="#000000">created_at    </text>
<text text-anchor="start" x="437.8422" y="-98.9" font-family="Arial" font-size="14.00" fill="#666666">[bigint]</text>
</g>
<!-- livecomments -->
<g id="node3" class="node">
<title>livecomments</title>
<polygon fill="#efefef" stroke="transparent" points="743.5,-252.5 743.5,-287.5 994.5,-287.5 994.5,-252.5 743.5,-252.5"/>
<polygon fill="none" stroke="#000000" points="743.5,-252.5 743.5,-287.5 994.5,-287.5 994.5,-252.5 743.5,-252.5"/>
<text text-anchor="start" x="750.2161" y="-265.3" font-family="Arial Bold" font-size="18.00" fill="#000000">livecomments</text>
<text text-anchor="start" x="860.2159" y="-265.3" font-family="Arial" font-size="14.00" fill="#000000">    </text>
<text text-anchor="start" x="894.4207" y="-265.3" font-family="Arial" font-size="14.00" fill="#666666">[BASE TABLE]</text>
<polygon fill="none" stroke="#000000" points="743.5,-222.5 743.5,-252.5 994.5,-252.5 994.5,-222.5 743.5,-222.5"/>
<text text-anchor="start" x="750.5" y="-233.9" font-family="Arial" font-size="14.00" fill="#000000">id    </text>
<text text-anchor="start" x="795.594" y="-233.9" font-family="Arial" font-size="14.00" fill="#666666">[bigint]</text>
<polygon fill="none" stroke="#000000" points="743.5,-192.5 743.5,-222.5 994.5,-222.5 994.5,-192.5 743.5,-192.5"/>
<text text-anchor="start" x="750.5" y="-203.9" font-family="Arial" font-size="14.00" fill="#000000">user_id    </text>
<text text-anchor="start" x="830.6024" y="-203.9" font-family="Arial" font-size="14.00" fill="#666666">[bigint]</text>
<polygon fill="none" stroke="#000000" points="743.5,-162.5 743.5,-192.5 994.5,-192.5 994.5,-162.5 743.5,-162.5"/>
<text text-anchor="start" x="750.5" y="-173.9" font-family="Arial" font-size="14.00" fill="#000000">livestream_id    </text>
<text text-anchor="start" x="867.1494" y="-173.9" font-family="Arial" font-size="14.00" fill="#666666">[bigint]</text>
<polygon fill="none" stroke="#000000" points="743.5,-132.5 743.5,-162.5 994.5,-162.5 994.5,-132.5 743.5,-132.5"/>
<text text-anchor="start" x="750.5" y="-143.9" font-family="Arial" font-size="14.00" fill="#000000">comment    </text>
<text text-anchor="start" x="842.2644" y="-143.9" font-family="Arial" font-size="14.00" fill="#666666">[varchar(255)]</text>
<polygon fill="none" stroke="#000000" points="743.5,-102.5 743.5,-132.5 994.5,-132.5 994.5,-102.5 743.5,-102.5"/>
<text text-anchor="start" x="750.5" y="-113.9" font-family="Arial" font-size="14.00" fill="#000000">tip    </text>
<text text-anchor="start" x="799.4846" y="-113.9" font-family="Arial" font-size="14.00" fill="#666666">[bigint]</text>
<polygon fill="none" stroke="#000000" points="743.5,-72.5 743.5,-102.5 994.5,-102.5 994.5,-72.5 743.5,-72.5"/>
<text text-anchor="start" x="750.5" y="-83.9" font-family="Arial" font-size="14.00" fill="#000000">created_at    </text>
<text text-anchor="start" x="850.8422" y="-83.9" font-family="Arial" font-size="14.00" fill="#666666">[bigint]</text>
</g>
<!-- livestream_tags -->
<g id="node4" class="node">
<title>livestream_tags</title>
<polygon fill="#efefef" stroke="transparent" points="1098.5,-207.5 1098.5,-242.5 1365.5,-242.5 1365.5,-207.5 1098.5,-207.5"/>
<polygon fill="none" stroke="#000000" points="1098.5,-207.5 1098.5,-242.5 1365.5,-242.5 1365.5,-207.5 1098.5,-207.5"/>
<text text-anchor="start" x="1105.2088" y="-220.3" font-family="Arial Bold" font-size="18.00" fill="#000000">livestream_tags</text>
<text text-anchor="start" x="1231.2232" y="-220.3" font-family="Arial" font-size="14.00" fill="#000000">    </text>
<text text-anchor="start" x="1265.428" y="-220.3" font-family="Arial" font-size="14.00" fill="#666666">[BASE TABLE]</text>
<polygon fill="none" stroke="#000000" points="1098.5,-177.5 1098.5,-207.5 1365.5,-207.5 1365.5,-177.5 1098.5,-177.5"/>
<text text-anchor="start" x="1105.5" y="-188.9" font-family="Arial" font-size="14.00" fill="#000000">id    </text>
<text text-anchor="start" x="1150.594" y="-188.9" font-family="Arial" font-size="14.00" fill="#666666">[bigint]</text>
<polygon fill="none" stroke="#000000" points="1098.5,-147.5 1098.5,-177.5 1365.5,-177.5 1365.5,-147.5 1098.5,-147.5"/>
<text text-anchor="start" x="1105.5" y="-158.9" font-family="Arial" font-size="14.00" fill="#000000">livestream_id    </text>
<text text-anchor="start" x="1222.1494" y="-158.9" font-family="Arial" font-size="14.00" fill="#666666">[bigint]</text>
<polygon fill="none" stroke="#000000" points="1098.5,-117.5 1098.5,-147.5 1365.5,-147.5 1365.5,-117.5 1098.5,-117.5"/>
<text text-anchor="start" x="1105.5" y="-128.9" font-family="Arial" font-size="14.00" fill="#000000">tag_id    </text>
<text text-anchor="start" x="1177.8324" y="-128.9" font-family="Arial" font-size="14.00" fill="#666666">[bigint]</text>
</g>
<!-- livestream_viewers_history -->
<g id="node5" class="node">
<title>livestream_viewers_history</title>
<polygon fill="#efefef" stroke="transparent" points="1469.5,-222.5 1469.5,-257.5 1826.5,-257.5 1826.5,-222.5 1469.5,-222.5"/>
<polygon fill="none" stroke="#000000" points="1469.5,-222.5 1469.5,-257.5 1826.5,-257.5 1826.5,-222.5 1469.5,-222.5"/>
<text text-anchor="start" x="1476.216" y="-235.3" font-family="Arial Bold" font-size="18.00" fill="#000000">livestream_viewers_history</text>
<text text-anchor="start" x="1692.216" y="-235.3" font-family="Arial" font-size="14.00" fill="#000000">    </text>
<text text-anchor="start" x="1726.4208" y="-235.3" font-family="Arial" font-size="14.00" fill="#666666">[BASE TABLE]</text>
<polygon fill="none" stroke="#000000" points="1469.5,-192.5 1469.5,-222.5 1826.5,-222.5 1826.5,-192.5 1469.5,-192.5"/>
<text text-anchor="start" x="1476.5" y="-203.9" font-family="Arial" font-size="14.00" fill="#000000">id    </text>
<text text-anchor="start" x="1521.594" y="-203.9" font-family="Arial" font-size="14.00" fill="#666666">[bigint]</text>
<polygon fill="none" stroke="#000000" points="1469.5,-162.5 1469.5,-192.5 1826.5,-192.5 1826.5,-162.5 1469.5,-162.5"/>
<text text-anchor="start" x="1476.5" y="-173.9" font-family="Arial" font-size="14.00" fill="#000000">user_id    </text>
<text text-anchor="start" x="1556.6024" y="-173.9" font-family="Arial" font-size="14.00" fill="#666666">[bigint]</text>
<polygon fill="none" stroke="#000000" points="1469.5,-132.5 1469.5,-162.5 1826.5,-162.5 1826.5,-132.5 1469.5,-132.5"/>
<text text-anchor="start" x="1476.5" y="-143.9" font-family="Arial" font-size="14.00" fill="#000000">livestream_id    </text>
<text text-anchor="start" x="1593.1494" y="-143.9" font-family="Arial" font-size="14.00" fill="#666666">[bigint]</text>
<polygon fill="none" stroke="#000000" points="1469.5,-102.5 1469.5,-132.5 1826.5,-132.5 1826.5,-102.5 1469.5,-102.5"/>
<text text-anchor="start" x="1476.5" y="-113.9" font-family="Arial" font-size="14.00" fill="#000000">created_at    </text>
<text text-anchor="start" x="1576.8422" y="-113.9" font-family="Arial" font-size="14.00" fill="#666666">[bigint]</text>
</g>
<!-- livestreams -->
<g id="node6" class="node">
<title>livestreams</title>
<polygon fill="#efefef" stroke="transparent" points="1930.5,-282.5 1930.5,-317.5 2162.5,-317.5 2162.5,-282.5 1930.5,-282.5"/>
<polygon fill="none" stroke="#000000" points="1930.5,-282.5 1930.5,-317.5 2162.5,-317.5 2162.5,-282.5 1930.5,-282.5"/>
<text text-anchor="start" x="1937.2192" y="-295.3" font-family="Arial Bold" font-size="18.00" fill="#000000">livestreams</text>
<text text-anchor="start" x="2028.2128" y="-295.3" font-family="Arial" font-size="14.00" fill="#000000">    </text>
<text text-anchor="start" x="2062.4176" y="-295.3" font-family="Arial" font-size="14.00" fill="#666666">[BASE TABLE]</text>
<polygon fill="none" stroke="#000000" points="1930.5,-252.5 1930.5,-282.5 2162.5,-282.5 2162.5,-252.5 1930.5,-252.5"/>
<text text-anchor="start" x="1937.5" y="-263.9" font-family="Arial" font-size="14.00" fill="#000000">id    </text>
<text text-anchor="start" x="1982.594" y="-263.9" font-family="Arial" font-size="14.00" fill="#666666">[bigint]</text>
<polygon fill="none" stroke="#000000" points="1930.5,-222.5 1930.5,-252.5 2162.5,-252.5 2162.5,-222.5 1930.5,-222.5"/>
<text text-anchor="start" x="1937.5" y="-233.9" font-family="Arial" font-size="14.00" fill="#000000">user_id    </text>
<text text-anchor="start" x="2017.6024" y="-233.9" font-family="Arial" font-size="14.00" fill="#666666">[bigint]</text>
<polygon fill="none" stroke="#000000" points="1930.5,-192.5 1930.5,-222.5 2162.5,-222.5 2162.5,-192.5 1930.5,-192.5"/>
<text text-anchor="start" x="1937.5" y="-203.9" font-family="Arial" font-size="14.00" fill="#000000">title    </text>
<text text-anchor="start" x="1993.4818" y="-203.9" font-family="Arial" font-size="14.00" fill="#666666">[varchar(255)]</text>
<polygon fill="none" stroke="#000000" points="1930.5,-162.5 1930.5,-192.5 2162.5,-192.5 2162.5,-162.5 1930.5,-162.5"/>
<text text-anchor="start" x="1937.5" y="-173.9" font-family="Arial" font-size="14.00" fill="#000000">description    </text>
<text text-anchor="start" x="2039.3822" y="-173.9" font-family="Arial" font-size="14.00" fill="#666666">[text]</text>
<polygon fill="none" stroke="#000000" points="1930.5,-132.5 1930.5,-162.5 2162.5,-162.5 2162.5,-132.5 1930.5,-132.5"/>
<text text-anchor="start" x="1937.5" y="-143.9" font-family="Arial" font-size="14.00" fill="#000000">playlist_url    </text>
<text text-anchor="start" x="2037.8128" y="-143.9" font-family="Arial" font-size="14.00" fill="#666666">[varchar(255)]</text>
<polygon fill="none" stroke="#000000" points="1930.5,-102.5 1930.5,-132.5 2162.5,-132.5 2162.5,-102.5 1930.5,-102.5"/>
<text text-anchor="start" x="1937.5" y="-113.9" font-family="Arial" font-size="14.00" fill="#000000">thumbnail_url    </text>
<text text-anchor="start" x="2055.7146" y="-113.9" font-family="Arial" font-size="14.00" fill="#666666">[varchar(255)]</text>
<polygon fill="none" stroke="#000000" points="1930.5,-72.5 1930.5,-102.5 2162.5,-102.5 2162.5,-72.5 1930.5,-72.5"/>
<text text-anchor="start" x="1937.5" y="-83.9" font-family="Arial" font-size="14.00" fill="#000000">start_at    </text>
<text text-anchor="start" x="2018.385" y="-83.9" font-family="Arial" font-size="14.00" fill="#666666">[bigint]</text>
<polygon fill="none" stroke="#000000" points="1930.5,-42.5 1930.5,-72.5 2162.5,-72.5 2162.5,-42.5 1930.5,-42.5"/>
<text text-anchor="start" x="1937.5" y="-53.9" font-family="Arial" font-size="14.00" fill="#000000">end_at    </text>
<text text-anchor="start" x="2014.5084" y="-53.9" font-family="Arial" font-size="14.00" fill="#666666">[bigint]</text>
</g>
<!-- ng_words -->
<g id="node7" class="node">
<title>ng_words</title>
<polygon fill="#efefef" stroke="transparent" points="2267.5,-237.5 2267.5,-272.5 2486.5,-272.5 2486.5,-237.5 2267.5,-237.5"/>
<polygon fill="none" stroke="#000000" points="2267.5,-237.5 2267.5,-272.5 2486.5,-272.5 2486.5,-237.5 2267.5,-237.5"/>
<text text-anchor="start" x="2274.2073" y="-250.3" font-family="Arial Bold" font-size="18.00" fill="#000000">ng_words</text>
<text text-anchor="start" x="2352.2247" y="-250.3" font-family="Arial" font-size="14.00" fill="#000000">    </text>
<text text-anchor="start" x="2386.4295" y="-250.3" font-family="Arial" font-size="14.00" fill="#666666">[BASE TABLE]</text>
<polygon fill="none" stroke="#000000" points="2267.5,-207.5 2267.5,-237.5 2486.5,-237.5 2486.5,-207.5 2267.5,-207.5"/>
<text text-anchor="start" x="2274.5" y="-218.9" font-family="Arial" font-size="14.00" fill="#000000">id    </text>
<text text-anchor="start" x="2319.594" y="-218.9" font-family="Arial" font-size="14.00" fill="#666666">[bigint]</text>
<polygon fill="none" stroke="#000000" points="2267.5,-177.5 2267.5,-207.5 2486.5,-207.5 2486.5,-177.5 2267.5,-177.5"/>
<text text-anchor="start" x="2274.5" y="-188.9" font-family="Arial" font-size="14.00" fill="#000000">user_id    </text>
<text text-anchor="start" x="2354.6024" y="-188.9" font-family="Arial" font-size="14.00" fill="#666666">[bigint]</text>
<polygon fill="none" stroke="#000000" points="2267.5,-147.5 2267.5,-177.5 2486.5,-177.5 2486.5,-147.5 2267.5,-147.5"/>
<text text-anchor="start" x="2274.5" y="-158.9" font-family="Arial" font-size="14.00" fill="#000000">livestream_id    </text>
<text text-anchor="start" x="2391.1494" y="-158.9" font-family="Arial" font-size="14.00" fill="#666666">[bigint]</text>
<polygon fill="none" stroke="#000000" points="2267.5,-117.5 2267.5,-147.5 2486.5,-147.5 2486.5,-117.5 2267.5,-117.5"/>
<text text-anchor="start" x="2274.5" y="-128.9" font-family="Arial" font-size="14.00" fill="#000000">word    </text>
<text text-anchor="start" x="2339.0372" y="-128.9" font-family="Arial" font-size="14.00" fill="#666666">[varchar(255)]</text>
<polygon fill="none" stroke="#000000" points="2267.5,-87.5 2267.5,-117.5 2486.5,-117.5 2486.5,-87.5 2267.5,-87.5"/>
<text text-anchor="start" x="2274.5" y="-98.9" font-family="Arial" font-size="14.00" fill="#000000">created_at    </text>
<text text-anchor="start" x="2374.8422" y="-98.9" font-family="Arial" font-size="14.00" fill="#666666">[bigint]</text>
</g>
<!-- reactions -->
<g id="node8" class="node">
<title>reactions</title>
<polygon fill="#efefef" stroke="transparent" points="2590.5,-237.5 2590.5,-272.5 2804.5,-272.5 2804.5,-237.5 2590.5,-237.5"/>
<polygon fill="none" stroke="#000000" points="2590.5,-237.5 2590.5,-272.5 2804.5,-272.5 2804.5,-237.5 2590.5,-237.5"/>
<text text-anchor="start" x="2597.2093" y="-250.3" font-family="Arial Bold" font-size="18.00" fill="#000000">reactions</text>
<text text-anchor="start" x="2670.2227" y="-250.3" font-family="Arial" font-size="14.00" fill="#000000">    </text>
<text text-anchor="start" x="2704.4275" y="-250.3" font-family="Arial" font-size="14.00" fill="#666666">[BASE TABLE]</text>
<polygon fill="none" stroke="#000000" points="2590.5,-207.5 2590.5,-237.5 2804.5,-237.5 2804.5,-207.5 2590.5,-207.5"/>
<text text-anchor="start" x="2597.5" y="-218.9" font-family="Arial" font-size="14.00" fill="#000000">id    </text>
<text text-anchor="start" x="2642.594" y="-218.9" font-family="Arial" font-size="14.00" fill="#666666">[bigint]</text>
<polygon fill="none" stroke="#000000" points="2590.5,-177.5 2590.5,-207.5 2804.5,-207.5 2804.5,-177.5 2590.5,-177.5"/>
<text text-anchor="start" x="2597.5" y="-188.9" font-family="Arial" font-size="14.00" fill="#000000">user_id    </text>
<text text-anchor="start" x="2677.6024" y="-188.9" font-family="Arial" font-size="14.00" fill="#666666">[bigint]</text>
<polygon fill="none" stroke="#000000" points="2590.5,-147.5 2590.5,-177.5 2804.5,-177.5 2804.5,-147.5 2590.5,-147.5"/>
<text text-anchor="start" x="2597.5" y="-158.9" font-family="Arial" font-size="14.00" fill="#000000">livestream_id    </text>
<text text-anchor="start" x="2714.1494" y="-158.9" font-family="Arial" font-size="14.00" fill="#666666">[bigint]</text>
<polygon fill="none" stroke="#000000" points="2590.5,-117.5 2590.5,-147.5 2804.5,-147.5 2804.5,-117.5 2590.5,-117.5"/>
<text text-anchor="start" x="2597.5" y="-128.9" font-family="Arial" font-size="14.00" fill="#000000">emoji_name    </text>
<text text-anchor="start" x="2707.9348" y="-128.9" font-family="Arial" font-size="14.00" fill="#666666">[varchar(255)]</text>
<polygon fill="none" stroke="#000000" points="2590.5,-87.5 2590.5,-117.5 2804.5,-117.5 2804.5,-87.5 2590.5,-87.5"/>
<text text-anchor="start" x="2597.5" y="-98.9" font-family="Arial" font-size="14.00" fill="#000000">created_at    </text>
<text text-anchor="start" x="2697.8422" y="-98.9" font-family="Arial" font-size="14.00" fill="#666666">[bigint]</text>
</g>
<!-- reservation_slots -->
<g id="node9" class="node">
<title>reservation_slots</title>
<polygon fill="#efefef" stroke="transparent" points="2909.5,-222.5 2909.5,-257.5 3186.5,-257.5 3186.5,-222.5 2909.5,-222.5"/>
<polygon fill="none" stroke="#000000" points="2909.5,-222.5 2909.5,-257.5 3186.5,-257.5 3186.5,-222.5 2909.5,-222.5"/>
<text text-anchor="start" x="2916.2057" y="-235.3" font-family="Arial Bold" font-size="18.00" fill="#000000">reservation_slots</text>
<text text-anchor="start" x="3052.2263" y="-235.3" font-family="Arial" font-size="14.00" fill="#000000">    </text>
<text text-anchor="start" x="3086.4311" y="-235.3" font-family="Arial" font-size="14.00" fill="#666666">[BASE TABLE]</text>
<polygon fill="none" stroke="#000000" points="2909.5,-192.5 2909.5,-222.5 3186.5,-222.5 3186.5,-192.5 2909.5,-192.5"/>
<text text-anchor="start" x="2916.5" y="-203.9" font-family="Arial" font-size="14.00" fill="#000000">id    </text>
<text text-anchor="start" x="2961.594" y="-203.9" font-family="Arial" font-size="14.00" fill="#666666">[bigint]</text>
<polygon fill="none" stroke="#000000" points="2909.5,-162.5 2909.5,-192.5 3186.5,-192.5 3186.5,-162.5 2909.5,-162.5"/>
<text text-anchor="start" x="2916.5" y="-173.9" font-family="Arial" font-size="14.00" fill="#000000">slot    </text>
<text text-anchor="start" x="2972.4846" y="-173.9" font-family="Arial" font-size="14.00" fill="#666666">[bigint]</text>
<polygon fill="none" stroke="#000000" points="2909.5,-132.5 2909.5,-162.5 3186.5,-162.5 3186.5,-132.5 2909.5,-132.5"/>
<text text-anchor="start" x="2916.5" y="-143.9" font-family="Arial" font-size="14.00" fill="#000000">start_at    </text>
<text text-anchor="start" x="2997.385" y="-143.9" font-family="Arial" font-size="14.00" fill="#666666">[bigint]</text>
<polygon fill="none" stroke="#000000" points="2909.5,-102.5 2909.5,-132.5 3186.5,-132.5 3186.5,-102.5 2909.5,-102.5"/>
<text text-anchor="start" x="2916.5" y="-113.9" font-family="Arial" font-size="14.00" fill="#000000">end_at    </text>
<text text-anchor="start" x="2993.5084" y="-113.9" font-family="Arial" font-size="14.00" fill="#666666">[bigint]</text>
</g>
<!-- tags -->
<g id="node10" class="node">
<title>tags</title>
<polygon fill="#efefef" stroke="transparent" points="3290.5,-192.5 3290.5,-227.5 3465.5,-227.5 3465.5,-192.5 3290.5,-192.5"/>
<polygon fill="none" stroke="#000000" points="3290.5,-192.5 3290.5,-227.5 3465.5,-227.5 3465.5,-192.5 3290.5,-192.5"/>
<text text-anchor="start" x="3297.2087" y="-205.3" font-family="Arial Bold" font-size="18.00" fill="#000000">tags</text>
<text text-anchor="start" x="3331.2233" y="-205.3" font-family="Arial" font-size="14.00" fill="#000000">    </text>
<text text-anchor="start" x="3365.4281" y="-205.3" font-family="Arial" font-size="14.00" fill="#666666">[BASE TABLE]</text>
<polygon fill="none" stroke="#000000" points="3290.5,-162.5 3290.5,-192.5 3465.5,-192.5 3465.5,-162.5 3290.5,-162.5"/>
<text text-anchor="start" x="3297.5" y="-173.9" font-family="Arial" font-size="14.00" fill="#000000">id    </text>
<text text-anchor="start" x="3342.594" y="-173.9" font-family="Arial" font-size="14.00" fill="#666666">[bigint]</text>
<polygon fill="none" stroke="#000000" points="3290.5,-132.5 3290.5,-162.5 3465.5,-162.5 3465.5,-132.5 3290.5,-132.5"/>
<text text-anchor="start" x="3297.5" y="-143.9" font-family="Arial" font-size="14.00" fill="#000000">name    </text>
<text text-anchor="start" x="3366.7132" y="-143.9" font-family="Arial" font-size="14.00" fill="#666666">[varchar(255)]</text>
</g>
<!-- themes -->
<g id="node11" class="node">
<title>themes</title>
<polygon fill="#efefef" stroke="transparent" points="3569.5,-207.5 3569.5,-242.5 3769.5,-242.5 3769.5,-207.5 3569.5,-207.5"/>
<polygon fill="none" stroke="#000000" points="3569.5,-207.5 3569.5,-242.5 3769.5,-242.5 3769.5,-207.5 3569.5,-207.5"/>
<text text-anchor="start" x="3576.2095" y="-220.3" font-family="Arial Bold" font-size="18.00" fill="#000000">themes</text>
<text text-anchor="start" x="3635.2225" y="-220.3" font-family="Arial" font-size="14.00" fill="#000000">    </text>
<text text-anchor="start" x="3669.4273" y="-220.3" font-family="Arial" font-size="14.00" fill="#666666">[BASE TABLE]</text>
<polygon fill="none" stroke="#000000" points="3569.5,-177.5 3569.5,-207.5 3769.5,-207.5 3769.5,-177.5 3569.5,-177.5"/>
<text text-anchor="start" x="3576.5" y="-188.9" font-family="Arial" font-size="14.00" fill="#000000">id    </text>
<text text-anchor="start" x="3621.594" y="-188.9" font-family="Arial" font-size="14.00" fill="#666666">[bigint]</text>
<polygon fill="none" stroke="#000000" points="3569.5,-147.5 3569.5,-177.5 3769.5,-177.5 3769.5,-147.5 3569.5,-147.5"/>
<text text-anchor="start" x="3576.5" y="-158.9" font-family="Arial" font-size="14.00" fill="#000000">user_id    </text>
<text text-anchor="start" x="3656.6024" y="-158.9" font-family="Arial" font-size="14.00" fill="#666666">[bigint]</text>
<polygon fill="none" stroke="#000000" points="3569.5,-117.5 3569.5,-147.5 3769.5,-147.5 3769.5,-117.5 3569.5,-117.5"/>
<text text-anchor="start" x="3576.5" y="-128.9" font-family="Arial" font-size="14.00" fill="#000000">dark_mode    </text>
<text text-anchor="start" x="3680.7216" y="-128.9" font-family="Arial" font-size="14.00" fill="#666666">[tinyint(1)]</text>
</g>
<!-- user_stats -->
<g id="node12" class="node">
<title>user_stats</title>
<polygon fill="#efefef" stroke="transparent" points="3873.5,-222.5 3873.5,-257.5 4097.5,-257.5 4097.5,-222.5 3873.5,-222.5"/>
<polygon fill="none" stroke="#000000" points="3873.5,-222.5 3873.5,-257.5 4097.5,-257.5 4097.5,-222.5 3873.5,-222.5"/>
<text text-anchor="start" x="3880.2053" y="-235.3" font-family="Arial Bold" font-size="18.00" fill="#000000">user_stats</text>
<text text-anchor="start" x="3963.2267" y="-235.3" font-family="Arial" font-size="14.00" fill="#000000">    </text>
<text text-anchor="start" x="3997.4315" y="-235.3" font-family="Arial" font-size="14.00" fill="#666666">[BASE TABLE]</text>
<polygon fill="none" stroke="#000000" points="3873.5,-192.5 3873.5,-222.5 4097.5,-222.5 4097.5,-192.5 3873.5,-192.5"/>
<text text-anchor="start" x="3880.5" y="-203.9" font-family="Arial" font-size="14.00" fill="#000000">user_id    </text>
<text text-anchor="start" x="3960.6024" y="-203.9" font-family="Arial" font-size="14.00" fill="#666666">[bigint]</text>
<polygon fill="none" stroke="#000000" points="3873.5,-162.5 3873.5,-192.5 4097.5,-192.5 4097.5,-162.5 3873.5,-162.5"/>
<text text-anchor="start" x="3880.5" y="-173.9" font-family="Arial" font-size="14.00" fill="#000000">reaction_count    </text>
<text text-anchor="start" x="4006.514" y="-173.9" font-family="Arial" font-size="14.00" fill="#666666">[bigint]</text>
<polygon fill="none" stroke="#000000" points="3873.5,-132.5 3873.5,-162.5 4097.5,-162.5 4097.5,-132.5 3873.5,-132.5"/>
<text text-anchor="start" x="3880.5" y="-143.9" font-family="Arial" font-size="14.00" fill="#000000">tip_amount    </text>
<text text-anchor="start" x="3983.9488" y="-143.9" font-family="Arial" font-size="14.00" fill="#666666">[bigint]</text>
<polygon fill="none" stroke="#000000" points="3873.5,-102.5 3873.5,-132.5 4097.5,-132.5 4097.5,-102.5 3873.5,-102.5"/>
<text text-anchor="start" x="3880.5" y="-113.9" font-family="Arial" font-size="14.00" fill="#000000">score    </text>
<text text-anchor="start" x="3948.9306" y="-113.9" font-family="Arial" font-size="14.00" fill="#666666">[bigint]</text>
</g>
<!-- users -->
<g id="node13" class="node">
<title>users</title>
<polygon fill="#efefef" stroke="transparent" points="4202.5,-237.5 4202.5,-272.5 4423.5,-272.5 4423.5,-237.5 4202.5,-237.5"/>
<polygon fill="none" stroke="#000000" points="4202.5,-237.5 4202.5,-272.5 4423.5,-272.5 4423.5,-237.5 4202.5,-237.5"/>
<text text-anchor="start" x="4227.2137" y="-250.3" font-family="Arial Bold" font-size="18.00" fill="#000000">users</text>
<text text-anchor="start" x="4271.2183" y="-250.3" font-family="Arial" font-size="14.00" fill="#000000">    </text>
<text text-anchor="start" x="4305.4231" y="-250.3" font-family="Arial" font-size="14.00" fill="#666666">[BASE TABLE]</text>
<polygon fill="none" stroke="#000000" points="4202.5,-207.5 4202.5,-237.5 4423.5,-237.5 4423.5,-207.5 4202.5,-207.5"/>
<text text-anchor="start" x="4209.5" y="-218.9" font-family="Arial" font-size="14.00" fill="#000000">id    </text>
<text text-anchor="start" x="4254.594" y="-218.9" font-family="Arial" font-size="14.00" fill="#666666">[bigint]</text>
<polygon fill="none" stroke="#000000" points="4202.5,-177.5 4202.5,-207.5 4423.5,-207.5 4423.5,-177.5 4202.5,-177.5"/>
<text text-anchor="start" x="4209.5" y="-188.9" font-family="Arial" font-size="14.00" fill="#000000">name    </text>
<text text-anchor="start" x="4278.7132" y="-188.9" font-family="Arial" font-size="14.00" fill="#666666">[varchar(255)]</text>
<polygon fill="none" stroke="#000000" points="4202.5,-147.5 4202.5,-177.5 4423.5,-177.5 4423.5,-147.5 4202.5,-147.5"/>
<text text-anchor="start" x="4209.162" y="-158.9" font-family="Arial" font-size="14.00" fill="#000000">display_name    </text>
<text text-anchor="start" x="4329.7188" y="-158.9" font-family="Arial" font-size="14.00" fill="#666666">[varchar(255)]</text>
<polygon fill="none" stroke="#000000" points="4202.5,-117.5 4202.5,-147.5 4423.5,-147.5 4423.5,-117.5 4202.5,-117.5"/>
<text text-anchor="start" x="4209.5" y="-128.9" font-family="Arial" font-size="14.00" fill="#000000">password    </text>
<text text-anchor="start" x="4303.6024" y="-128.9" font-family="Arial" font-size="14.00" fill="#666666">[varchar(255)]</text>
<polygon fill="none" stroke="#000000" points="4202.5,-87.5 4202.5,-117.5 4423.5,-117.5 4423.5,-87.5 4202.5,-87.5"/>
<text text-anchor="start" x="4209.5" y="-98.9" font-family="Arial" font-size="14.00" fill="#000000">description    </text>
<text text-anchor="start" x="4311.3822" y="-98.9" font-family="Arial" font-size="14.00" fill="#666666">[text]</text>
</g>
</g>
</svg>
